<svg width="15" height="16" viewBox="0 0 15 16" fill="none" xmlns="http://www.w3.org/2000/svg">
<path d="M7.50024 1.90599C4.14019 1.90599 1.40649 4.63968 1.40649 7.99974C1.40649 11.3598 4.14019 14.0935 7.50024 14.0935C10.8603 14.0935 13.594 11.3598 13.594 7.99974C13.594 4.63968 10.8603 1.90599 7.50024 1.90599ZM10.6716 5.95745L6.73413 10.645C6.69094 10.6964 6.63719 10.738 6.57654 10.7668C6.51588 10.7957 6.44973 10.8112 6.38257 10.8122H6.37466C6.30896 10.8122 6.24399 10.7984 6.18398 10.7716C6.12397 10.7449 6.07026 10.7058 6.02632 10.657L4.33882 8.78197C4.29596 8.73651 4.26262 8.68295 4.24076 8.62442C4.2189 8.5659 4.20896 8.5036 4.21152 8.44118C4.21409 8.37876 4.2291 8.31748 4.25568 8.26094C4.28227 8.20441 4.31988 8.15376 4.36632 8.11197C4.41276 8.07018 4.46708 8.03809 4.52609 8.0176C4.58511 7.9971 4.64763 7.98861 4.70997 7.99262C4.77231 7.99663 4.83323 8.01306 4.88913 8.04095C4.94503 8.06884 4.9948 8.10762 5.0355 8.15501L6.36235 9.62923L9.95386 5.35453C10.0344 5.26138 10.1484 5.20369 10.2712 5.19391C10.3939 5.18412 10.5156 5.22304 10.6099 5.30225C10.7042 5.38146 10.7635 5.49459 10.7751 5.6172C10.7866 5.7398 10.7495 5.86203 10.6716 5.95745V5.95745Z" fill="#68D391"/>
</svg>
