<svg width="32" height="32" viewBox="0 0 32 32" fill="none" xmlns="http://www.w3.org/2000/svg">
<path d="M21.6389 8.78461C19.1976 8.78461 18.1659 9.94953 16.4658 9.94953C14.7226 9.94953 13.393 8.79308 11.2775 8.79308C9.20681 8.79308 6.99866 10.0573 5.5964 12.211C3.62741 15.248 3.96163 20.9678 7.15064 25.8407C8.29134 27.585 9.8147 29.5413 11.8127 29.5625H11.8491C13.5856 29.5625 14.1014 28.4254 16.4912 28.4121H16.5275C18.8816 28.4121 19.3539 29.5558 21.0831 29.5558H21.1194C23.1175 29.5346 24.7225 27.3671 25.8633 25.6294C26.6843 24.3797 26.9894 23.7524 27.6191 22.3386C23.006 20.5876 22.265 14.0479 26.8272 11.5407C25.4346 9.79695 23.4777 8.78703 21.6328 8.78703L21.6389 8.78461Z" fill="#2D3748"/>
<path d="M21.1013 2.43903C19.6482 2.53772 17.9529 3.46287 16.9599 4.67078C16.059 5.76547 15.3179 7.38934 15.6085 8.96416H15.7248C17.2723 8.96416 18.8563 8.03234 19.7814 6.83836C20.6727 5.7019 21.3484 4.09135 21.1013 2.43903Z" fill="#2D3748"/>
</svg>
