<svg width="16" height="17" viewBox="0 0 16 17" fill="none" xmlns="http://www.w3.org/2000/svg">
<path d="M5.49976 14.4999C6.05204 14.4999 6.49976 14.0522 6.49976 13.4999C6.49976 12.9477 6.05204 12.4999 5.49976 12.4999C4.94747 12.4999 4.49976 12.9477 4.49976 13.4999C4.49976 14.0522 4.94747 14.4999 5.49976 14.4999Z" fill="#4299E1"/>
<path d="M12.5 14.4999C13.0523 14.4999 13.5 14.0522 13.5 13.4999C13.5 12.9477 13.0523 12.4999 12.5 12.4999C11.9477 12.4999 11.5 12.9477 11.5 13.4999C11.5 14.0522 11.9477 14.4999 12.5 14.4999Z" fill="#4299E1"/>
<path d="M14.2748 4.27453C14.2045 4.1886 14.116 4.1194 14.0157 4.07194C13.9154 4.02449 13.8057 3.99996 13.6948 4.00015H4.18382L3.99226 2.91328C3.97183 2.79751 3.91126 2.69263 3.82119 2.61708C3.73113 2.54153 3.61732 2.50013 3.49976 2.50015H1.49976C1.36715 2.50015 1.23997 2.55283 1.1462 2.6466C1.05243 2.74037 0.999756 2.86754 0.999756 3.00015C0.999756 3.13276 1.05243 3.25994 1.1462 3.35371C1.23997 3.44747 1.36715 3.50015 1.49976 3.50015H3.08038L4.50726 11.587C4.52768 11.7028 4.58825 11.8077 4.67832 11.8832C4.76838 11.9588 4.88219 12.0002 4.99975 12.0001H12.9998C13.1324 12.0001 13.2595 11.9475 13.3533 11.8537C13.4471 11.7599 13.4998 11.6328 13.4998 11.5001C13.4998 11.3675 13.4471 11.2404 13.3533 11.1466C13.2595 11.0528 13.1324 11.0001 12.9998 11.0001H5.41913L5.24288 10.0002H12.7948C12.9682 9.99993 13.1361 9.93981 13.2703 9.82996C13.4045 9.72011 13.4966 9.56728 13.531 9.39734L14.431 4.89734C14.4527 4.78843 14.4499 4.67607 14.4229 4.56837C14.3959 4.46066 14.3453 4.3603 14.2748 4.27453Z" fill="#4299E1"/>
</svg>
