<svg width="15" height="16" viewBox="0 0 15 16" fill="none" xmlns="http://www.w3.org/2000/svg">
<g clip-path="url(#clip0_1_1311)">
<path d="M3.04687 15.0316H2.10937C1.92289 15.0316 1.74405 14.9575 1.61219 14.8257C1.48033 14.6938 1.40625 14.515 1.40625 14.3285V10.1097C1.40625 9.92326 1.48033 9.74442 1.61219 9.61256C1.74405 9.4807 1.92289 9.40662 2.10937 9.40662H3.04687C3.23335 9.40662 3.4122 9.4807 3.54406 9.61256C3.67592 9.74442 3.75 9.92326 3.75 10.1097V14.3285C3.75 14.515 3.67592 14.6938 3.54406 14.8257C3.4122 14.9575 3.23335 15.0316 3.04687 15.0316Z" fill="#4FD1C5"/>
<path d="M9.60937 15.0308H8.67187C8.48539 15.0308 8.30655 14.9567 8.17469 14.8249C8.04283 14.693 7.96875 14.5142 7.96875 14.3277V7.29645C7.96875 7.10997 8.04283 6.93112 8.17469 6.79926C8.30655 6.6674 8.48539 6.59332 8.67187 6.59332H9.60937C9.79585 6.59332 9.9747 6.6674 10.1066 6.79926C10.2384 6.93112 10.3125 7.10997 10.3125 7.29645V14.3277C10.3125 14.5142 10.2384 14.693 10.1066 14.8249C9.9747 14.9567 9.79585 15.0308 9.60937 15.0308Z" fill="#4FD1C5"/>
<path d="M12.8906 15.0311H11.9531C11.7666 15.0311 11.5878 14.957 11.4559 14.8252C11.3241 14.6933 11.25 14.5145 11.25 14.328V4.0155C11.25 3.82902 11.3241 3.65018 11.4559 3.51832C11.5878 3.38646 11.7666 3.31238 11.9531 3.31238H12.8906C13.0771 3.31238 13.2559 3.38646 13.3878 3.51832C13.5197 3.65018 13.5937 3.82902 13.5937 4.0155V14.328C13.5937 14.5145 13.5197 14.6933 13.3878 14.8252C13.2559 14.957 13.0771 15.0311 12.8906 15.0311Z" fill="#4FD1C5"/>
<path d="M6.32812 15.031H5.39062C5.20414 15.031 5.0253 14.9569 4.89344 14.8251C4.76158 14.6932 4.6875 14.5144 4.6875 14.3279V1.67163C4.6875 1.48515 4.76158 1.30631 4.89344 1.17445C5.0253 1.04258 5.20414 0.968506 5.39062 0.968506H6.32812C6.5146 0.968506 6.69345 1.04258 6.82531 1.17445C6.95717 1.30631 7.03125 1.48515 7.03125 1.67163V14.3279C7.03125 14.5144 6.95717 14.6932 6.82531 14.8251C6.69345 14.9569 6.5146 15.031 6.32812 15.031Z" fill="#4FD1C5"/>
</g>
<defs>
<clipPath id="clip0_1_1311">
<rect width="15" height="15" fill="white" transform="translate(0 0.5)"/>
</clipPath>
</defs>
</svg>
