<svg width="12" height="12" viewBox="0 0 12 12" fill="none" xmlns="http://www.w3.org/2000/svg">
<g clip-path="url(#clip0_1_402)">
<path d="M9.97272 3.67547C9.98569 3.6679 9.99645 3.65707 10.0039 3.64404C10.0114 3.63102 10.0153 3.61626 10.0153 3.60124C10.0153 3.58622 10.0114 3.57147 10.0039 3.55844C9.99645 3.54542 9.98569 3.53458 9.97272 3.52701L6.6912 1.62049C6.48123 1.49879 6.24284 1.43469 6.00015 1.43469C5.75746 1.43469 5.51907 1.49879 5.30911 1.62049L2.02823 3.52701C2.01525 3.53458 2.00449 3.54542 1.99701 3.55844C1.98953 3.57147 1.9856 3.58622 1.9856 3.60124C1.9856 3.61626 1.98953 3.63102 1.99701 3.64404C2.00449 3.65707 2.01525 3.6679 2.02823 3.67547L5.95729 5.98676C5.97051 5.99454 5.98556 5.99865 6.0009 5.99865C6.01624 5.99865 6.0313 5.99454 6.04452 5.98676L9.97272 3.67547Z" fill="#2D3748"/>
<path d="M1.6604 4.25974C1.6473 4.25218 1.63243 4.24821 1.61729 4.24823C1.60216 4.24825 1.5873 4.25227 1.57422 4.25988C1.56114 4.26749 1.5503 4.27842 1.5428 4.29156C1.5353 4.3047 1.5314 4.31959 1.5315 4.33472V8.07064C1.53182 8.25068 1.57927 8.42749 1.66913 8.58349C1.75898 8.7395 1.88812 8.86926 2.04368 8.95988L5.52759 11.0488C5.54065 11.0563 5.55546 11.0603 5.57054 11.0603C5.58561 11.0603 5.60043 11.0564 5.61349 11.0488C5.62655 11.0413 5.6374 11.0305 5.64495 11.0174C5.6525 11.0044 5.65648 10.9895 5.6565 10.9745V6.64C5.65648 6.62493 5.6525 6.61013 5.64496 6.59708C5.63742 6.58403 5.62658 6.5732 5.61353 6.56566L1.6604 4.25974Z" fill="#2D3748"/>
<path d="M6.34387 6.65509V10.9735C6.34389 10.9885 6.34787 11.0033 6.35542 11.0164C6.36297 11.0294 6.37382 11.0403 6.38688 11.0478C6.39994 11.0553 6.41475 11.0593 6.42983 11.0593C6.44491 11.0593 6.45972 11.0553 6.47278 11.0478L9.95647 8.95886C10.1119 8.86836 10.241 8.73878 10.3309 8.58298C10.4208 8.42717 10.4683 8.25057 10.4689 8.0707V4.33478C10.4688 4.31972 10.4648 4.30494 10.4572 4.29192C10.4497 4.2789 10.4388 4.26809 10.4258 4.26058C10.4127 4.25308 10.3979 4.24913 10.3829 4.24915C10.3678 4.24916 10.353 4.25313 10.34 4.26066L6.38684 6.58097C6.37382 6.58849 6.363 6.59929 6.35546 6.6123C6.34792 6.6253 6.34393 6.64006 6.34387 6.65509Z" fill="#2D3748"/>
</g>
<defs>
<clipPath id="clip0_1_402">
<rect width="11" height="11" fill="white" transform="translate(0.500122 0.74762)"/>
</clipPath>
</defs>
</svg>
