<svg width="12" height="12" viewBox="0 0 12 12" fill="none" xmlns="http://www.w3.org/2000/svg">
<g clip-path="url(#clip0_1_282)">
<path d="M9.97199 3.67547C9.98496 3.6679 9.99572 3.65707 10.0032 3.64404C10.0107 3.63102 10.0146 3.61626 10.0146 3.60124C10.0146 3.58622 10.0107 3.57147 10.0032 3.55844C9.99572 3.54542 9.98496 3.53458 9.97199 3.52701L6.69046 1.62049C6.48049 1.49879 6.24211 1.43469 5.99942 1.43469C5.75673 1.43469 5.51834 1.49879 5.30837 1.62049L2.0275 3.52701C2.01452 3.53458 2.00376 3.54542 1.99628 3.55844C1.9888 3.57147 1.98486 3.58622 1.98486 3.60124C1.98486 3.61626 1.9888 3.63102 1.99628 3.64404C2.00376 3.65707 2.01452 3.6679 2.0275 3.67547L5.95656 5.98676C5.96977 5.99454 5.98483 5.99865 6.00017 5.99865C6.01551 5.99865 6.03057 5.99454 6.04378 5.98676L9.97199 3.67547Z" fill="white"/>
<path d="M1.65967 4.25981C1.64656 4.25224 1.63169 4.24827 1.61656 4.24829C1.60143 4.24832 1.58657 4.25234 1.57349 4.25994C1.56041 4.26755 1.54957 4.27848 1.54207 4.29162C1.53456 4.30476 1.53067 4.31965 1.53076 4.33479V8.0707C1.53109 8.25074 1.57854 8.42755 1.6684 8.58355C1.75825 8.73956 1.88738 8.86932 2.04295 8.95994L5.52686 11.0489C5.53991 11.0564 5.55473 11.0604 5.5698 11.0604C5.58488 11.0604 5.5997 11.0564 5.61276 11.0489C5.62582 11.0414 5.63667 11.0305 5.64422 11.0175C5.65177 11.0044 5.65575 10.9896 5.65576 10.9745V6.64006C5.65575 6.62499 5.65177 6.61019 5.64423 6.59714C5.63669 6.58409 5.62585 6.57326 5.61279 6.56572L1.65967 4.25981Z" fill="white"/>
<path d="M6.34326 6.65509V10.9735C6.34328 10.9885 6.34726 11.0033 6.35481 11.0164C6.36236 11.0294 6.37321 11.0403 6.38627 11.0478C6.39933 11.0553 6.41414 11.0593 6.42922 11.0593C6.4443 11.0593 6.45911 11.0553 6.47217 11.0478L9.95586 8.95886C10.1113 8.86836 10.2404 8.73878 10.3303 8.58298C10.4202 8.42717 10.4677 8.25057 10.4683 8.0707V4.33478C10.4682 4.31972 10.4642 4.30494 10.4566 4.29192C10.4491 4.2789 10.4382 4.26809 10.4252 4.26058C10.4121 4.25308 10.3973 4.24913 10.3822 4.24915C10.3672 4.24916 10.3524 4.25313 10.3394 4.26066L6.38623 6.58097C6.37321 6.58849 6.36239 6.59929 6.35485 6.6123C6.34731 6.6253 6.34331 6.64006 6.34326 6.65509Z" fill="white"/>
</g>
<defs>
<clipPath id="clip0_1_282">
<rect width="11" height="11" fill="white" transform="translate(0.499512 0.747681)"/>
</clipPath>
</defs>
</svg>
