<svg width="15" height="16" viewBox="0 0 15 16" fill="none" xmlns="http://www.w3.org/2000/svg">
<path d="M12.5391 7.06268H8.4375C8.06454 7.06268 7.70685 6.91452 7.44313 6.6508C7.17941 6.38708 7.03125 6.02939 7.03125 5.65643V1.55487C7.03125 1.52379 7.0189 1.49398 6.99693 1.47201C6.97495 1.45003 6.94514 1.43768 6.91406 1.43768H4.21875C3.72147 1.43768 3.24456 1.63523 2.89292 1.98686C2.54129 2.33849 2.34375 2.8154 2.34375 3.31268V12.6877C2.34375 13.185 2.54129 13.6619 2.89292 14.0135C3.24456 14.3651 3.72147 14.5627 4.21875 14.5627H10.7812C11.2785 14.5627 11.7554 14.3651 12.1071 14.0135C12.4587 13.6619 12.6562 13.185 12.6562 12.6877V7.17987C12.6562 7.14879 12.6439 7.11898 12.6219 7.097C12.5999 7.07503 12.5701 7.06268 12.5391 7.06268Z" fill="white"/>
<path d="M12.2818 6.026L8.06865 1.81282C8.06046 1.80467 8.05004 1.79913 8.03871 1.79689C8.02737 1.79465 8.01563 1.79581 8.00495 1.80022C7.99428 1.80464 7.98514 1.81211 7.9787 1.8217C7.97226 1.83129 7.9688 1.84257 7.96875 1.85412V5.65715C7.96875 5.78147 8.01814 5.9007 8.10604 5.98861C8.19395 6.07652 8.31318 6.1259 8.4375 6.1259H12.2405C12.2521 6.12585 12.2634 6.12239 12.273 6.11595C12.2825 6.10951 12.29 6.10037 12.2944 6.0897C12.2988 6.07902 12.3 6.06728 12.2978 6.05594C12.2955 6.04461 12.29 6.03419 12.2818 6.026Z" fill="white"/>
</svg>
