<svg width="24" height="24" viewBox="0 0 24 24" fill="none" xmlns="http://www.w3.org/2000/svg">
<path d="M22.1801 10.3817L22.0742 9.93222H12.3035V14.0675H18.1414C17.5353 16.9457 14.7228 18.4607 12.4254 18.4607C10.7539 18.4607 8.99182 17.7575 7.82557 16.6274C7.21026 16.0216 6.72047 15.3004 6.38426 14.505C6.04804 13.7097 5.87199 12.8558 5.8662 11.9924C5.8662 10.2505 6.64901 8.50816 7.78807 7.36206C8.92714 6.21597 10.6474 5.57472 12.3579 5.57472C14.3168 5.57472 15.7207 6.61488 16.2457 7.08925L19.1843 4.16613C18.3223 3.40863 15.9542 1.49988 12.2632 1.49988C9.41557 1.49988 6.68511 2.59066 4.68917 4.58003C2.71948 6.53894 1.69995 9.37159 1.69995 11.9999C1.69995 14.6282 2.66464 17.3192 4.57339 19.2936C6.61292 21.3992 9.50135 22.4999 12.4756 22.4999C15.1817 22.4999 17.7467 21.4396 19.5748 19.5158C21.372 17.6221 22.3015 15.0017 22.3015 12.2549C22.3015 11.0985 22.1853 10.4117 22.1801 10.3817Z" fill="#2D3748"/>
</svg>
