<svg width="12" height="12" viewBox="0 0 12 12" fill="none" xmlns="http://www.w3.org/2000/svg">
<path d="M5.18623 4.33953C5.18623 4.61883 5.18623 4.88953 5.27432 5.14304C4.34834 6.23015 1.90342 9.10261 1.67568 9.32175C1.63042 9.36236 1.59421 9.41205 1.56941 9.46757C1.54461 9.52309 1.53178 9.58321 1.53174 9.64402C1.53174 9.82664 1.64346 10.0028 1.73799 10.1016C1.87979 10.2499 2.48564 10.8106 2.59736 10.7032C2.92822 10.3809 2.99482 10.295 3.13018 10.1618C3.33428 9.96199 3.10869 9.55379 3.17959 9.38836C3.25049 9.22293 3.32568 9.1907 3.44814 9.16492C3.57061 9.13914 3.7876 9.22722 3.95732 9.22937C4.13564 9.23152 4.23232 9.15632 4.36553 9.03172C4.47295 8.93289 4.55029 8.8405 4.55244 8.69656C4.55674 8.5032 4.27744 8.24754 4.48584 8.04343C4.69424 7.83933 4.99502 8.17664 5.21631 8.15086C5.4376 8.12507 5.70615 7.81785 5.73408 7.68679C5.76201 7.55574 5.48271 7.21843 5.52568 7.02722C5.54072 6.96277 5.67178 6.81238 5.77061 6.79089C5.86943 6.76941 6.30771 6.93914 6.40654 6.91765C6.52685 6.89187 6.6665 6.76511 6.78037 6.69422C7.11338 6.83816 7.41631 6.89617 7.80518 6.89617C9.27685 6.89617 10.4692 5.7489 10.4692 4.33523C10.4692 2.92156 9.27685 1.77924 7.80518 1.77924C6.3335 1.77924 5.18623 2.92586 5.18623 4.33953ZM9.09424 3.84174C9.09424 3.97771 9.05392 4.11063 8.97837 4.22369C8.90283 4.33675 8.79546 4.42487 8.66983 4.4769C8.54421 4.52894 8.40597 4.54255 8.27261 4.51603C8.13925 4.4895 8.01675 4.42402 7.9206 4.32787C7.82445 4.23172 7.75898 4.10922 7.73245 3.97586C7.70592 3.8425 7.71954 3.70426 7.77157 3.57864C7.82361 3.45302 7.91172 3.34564 8.02478 3.2701C8.13784 3.19456 8.27076 3.15424 8.40674 3.15424C8.58907 3.15424 8.76394 3.22667 8.89287 3.3556C9.0218 3.48453 9.09424 3.6594 9.09424 3.84174Z" fill="#2D3748"/>
</svg>
