<svg width="12" height="12" viewBox="0 0 12 12" fill="none" xmlns="http://www.w3.org/2000/svg">
<path d="M5.1855 4.33959C5.1855 4.61889 5.1855 4.88959 5.27358 5.14311C4.34761 6.23021 1.90269 9.10267 1.67495 9.32182C1.62969 9.36243 1.59348 9.41211 1.56868 9.46763C1.54388 9.52315 1.53104 9.58327 1.53101 9.64408C1.53101 9.8267 1.64272 10.0029 1.73726 10.1017C1.87905 10.2499 2.48491 10.8107 2.59663 10.7033C2.92749 10.381 2.99409 10.2951 3.12944 10.1619C3.33354 9.96205 3.10796 9.55385 3.17886 9.38842C3.24976 9.22299 3.32495 9.19076 3.44741 9.16498C3.56987 9.1392 3.78686 9.22728 3.95659 9.22943C4.13491 9.23158 4.23159 9.15639 4.36479 9.03178C4.47222 8.93295 4.54956 8.84057 4.55171 8.69662C4.55601 8.50326 4.27671 8.2476 4.48511 8.0435C4.69351 7.83939 4.99429 8.1767 5.21558 8.15092C5.43686 8.12514 5.70542 7.81791 5.73335 7.68685C5.76128 7.5558 5.48198 7.21849 5.52495 7.02728C5.53999 6.96283 5.67104 6.81244 5.76987 6.79096C5.8687 6.76947 6.30698 6.9392 6.40581 6.91771C6.52612 6.89193 6.66577 6.76517 6.77964 6.69428C7.11265 6.83822 7.41558 6.89623 7.80444 6.89623C9.27612 6.89623 10.4685 5.74896 10.4685 4.33529C10.4685 2.92162 9.27612 1.7793 7.80444 1.7793C6.33276 1.7793 5.1855 2.92592 5.1855 4.33959ZM9.09351 3.8418C9.09351 3.97777 9.05318 4.11069 8.97764 4.22375C8.9021 4.33681 8.79472 4.42493 8.6691 4.47696C8.54348 4.529 8.40524 4.54261 8.27188 4.51609C8.13852 4.48956 8.01602 4.42408 7.91987 4.32793C7.82372 4.23178 7.75824 4.10928 7.73172 3.97592C7.70519 3.84256 7.7188 3.70433 7.77084 3.5787C7.82287 3.45308 7.91099 3.3457 8.02405 3.27016C8.13711 3.19462 8.27003 3.1543 8.40601 3.1543C8.58834 3.1543 8.76321 3.22673 8.89214 3.35566C9.02107 3.48459 9.09351 3.65946 9.09351 3.8418Z" fill="white"/>
</svg>
