<svg width="16" height="16" viewBox="0 0 16 16" fill="none" xmlns="http://www.w3.org/2000/svg">
<path d="M13.7525 10.6656C13.7006 10.6031 13.6497 10.5406 13.5997 10.4803C12.9122 9.64872 12.4963 9.14685 12.4963 6.79279C12.4963 5.57404 12.2047 4.57404 11.63 3.82404C11.2063 3.26998 10.6334 2.84966 9.87845 2.53904C9.86873 2.53363 9.86005 2.52654 9.85282 2.5181C9.58126 1.60873 8.83813 0.999664 8.00001 0.999664C7.16188 0.999664 6.41907 1.60873 6.14751 2.51716C6.14026 2.5253 6.13171 2.53216 6.1222 2.53748C4.36032 3.26279 3.50407 4.65435 3.50407 6.79185C3.50407 9.14685 3.08876 9.64872 2.40064 10.4793C2.35064 10.5397 2.2997 10.6009 2.24782 10.6647C2.11382 10.8263 2.02892 11.0229 2.00317 11.2312C1.97742 11.4396 2.01189 11.6509 2.10251 11.8403C2.29532 12.2465 2.70626 12.4987 3.17532 12.4987H12.8281C13.295 12.4987 13.7031 12.2468 13.8966 11.8425C13.9876 11.6531 14.0224 11.4415 13.9968 11.2329C13.9713 11.0244 13.8865 10.8275 13.7525 10.6656Z" fill="#4FD1C5"/>
<path d="M7.99986 15C8.45143 14.9996 8.89449 14.877 9.28204 14.6452C9.66958 14.4134 9.98717 14.0811 10.2011 13.6834C10.2112 13.6643 10.2162 13.643 10.2156 13.6215C10.215 13.5999 10.2088 13.5789 10.1977 13.5604C10.1865 13.542 10.1708 13.5267 10.152 13.5161C10.1332 13.5055 10.112 13.4999 10.0905 13.5H5.90986C5.88828 13.4999 5.86704 13.5054 5.84822 13.516C5.8294 13.5265 5.81363 13.5418 5.80246 13.5603C5.79129 13.5788 5.7851 13.5998 5.78448 13.6214C5.78386 13.643 5.78883 13.6643 5.79893 13.6834C6.01284 14.081 6.33038 14.4134 6.71786 14.6452C7.10535 14.8769 7.54834 14.9995 7.99986 15Z" fill="#4FD1C5"/>
</svg>
