<svg width="15" height="16" viewBox="0 0 15 16" fill="none" xmlns="http://www.w3.org/2000/svg">
<path d="M9.74534 2.39181C9.17522 1.77628 8.37893 1.43732 7.50003 1.43732C6.61643 1.43732 5.81751 1.77423 5.25003 2.38595C4.6764 3.00441 4.3969 3.84493 4.46253 4.75255C4.59261 6.54317 5.9552 7.99981 7.50003 7.99981C9.04485 7.99981 10.4051 6.54347 10.5372 4.75314C10.6037 3.85372 10.3225 3.01495 9.74534 2.39181Z" fill="#4FD1C5"/>
<path d="M12.6564 14.5617H2.34392C2.20894 14.5634 2.07526 14.5351 1.95262 14.4787C1.82997 14.4223 1.72145 14.3392 1.63493 14.2356C1.4445 14.008 1.36775 13.6971 1.42458 13.3828C1.67185 12.0111 2.44353 10.8588 3.65642 10.05C4.73396 9.33189 6.0989 8.93668 7.50016 8.93668C8.90143 8.93668 10.2664 9.33218 11.3439 10.05C12.5568 10.8586 13.3285 12.0108 13.5757 13.3825C13.6326 13.6968 13.5558 14.0077 13.3654 14.2353C13.2789 14.339 13.1704 14.4221 13.0478 14.4785C12.9251 14.535 12.7914 14.5634 12.6564 14.5617Z" fill="#4FD1C5"/>
</svg>
