<svg width="12" height="12" viewBox="0 0 12 12" fill="none" xmlns="http://www.w3.org/2000/svg">
<g clip-path="url(#clip0_1_274)">
<path d="M7.64609 2.13496C7.22801 1.68357 6.64406 1.435 5.99953 1.435C5.35156 1.435 4.76568 1.68207 4.34953 2.13066C3.92887 2.5842 3.72391 3.20058 3.77203 3.86617C3.86742 5.17929 4.86666 6.2475 5.99953 6.2475C7.1324 6.2475 8.12992 5.17951 8.22682 3.8666C8.27559 3.20703 8.06934 2.59193 7.64609 2.13496Z" fill="white"/>
<path d="M9.78088 11.0596H2.21838C2.1194 11.0609 2.02137 11.0401 1.93143 10.9987C1.84149 10.9573 1.76191 10.8964 1.69846 10.8204C1.55881 10.6535 1.50253 10.4256 1.5442 10.195C1.72553 9.18914 2.29143 8.34416 3.18088 7.75098C3.97108 7.22439 4.97204 6.93457 5.99963 6.93457C7.02723 6.93457 8.02819 7.22461 8.81838 7.75098C9.70783 8.34394 10.2737 9.18893 10.4551 10.1948C10.4967 10.4254 10.4405 10.6533 10.3008 10.8202C10.2374 10.8963 10.1578 10.9572 10.0679 10.9986C9.97792 11.04 9.87988 11.0608 9.78088 11.0596Z" fill="white"/>
</g>
<defs>
<clipPath id="clip0_1_274">
<rect width="11" height="11" fill="white" transform="translate(0.499756 0.747681)"/>
</clipPath>
</defs>
</svg>
