<svg width="12" height="12" viewBox="0 0 12 12" fill="none" xmlns="http://www.w3.org/2000/svg">
<g clip-path="url(#clip0_1_394)">
<path d="M7.64683 2.1349C7.22874 1.68351 6.6448 1.43494 6.00026 1.43494C5.3523 1.43494 4.76642 1.68201 4.35026 2.1306C3.9296 2.58414 3.72464 3.20052 3.77276 3.86611C3.86816 5.17923 4.86739 6.24744 6.00026 6.24744C7.13314 6.24744 8.13065 5.17945 8.22755 3.86654C8.27632 3.20697 8.07007 2.59187 7.64683 2.1349Z" fill="#2D3748"/>
<path d="M9.78161 11.0594H2.21912C2.12013 11.0607 2.0221 11.0399 1.93216 10.9986C1.84223 10.9572 1.76264 10.8963 1.6992 10.8203C1.55955 10.6534 1.50326 10.4254 1.54494 10.1949C1.72627 9.18902 2.29216 8.34404 3.18162 7.75085C3.97181 7.22427 4.97277 6.93445 6.00037 6.93445C7.02796 6.93445 8.02892 7.22449 8.81911 7.75085C9.70857 8.34382 10.2745 9.1888 10.4558 10.1947C10.4975 10.4252 10.4412 10.6532 10.3015 10.8201C10.2381 10.8961 10.1585 10.9571 10.0686 10.9985C9.97865 11.0399 9.88062 11.0607 9.78161 11.0594Z" fill="#2D3748"/>
</g>
<defs>
<clipPath id="clip0_1_394">
<rect width="11" height="11" fill="white" transform="translate(0.500366 0.74762)"/>
</clipPath>
</defs>
</svg>
