<svg width="18" height="18" viewBox="0 0 18 18" fill="none" xmlns="http://www.w3.org/2000/svg">
<path d="M9 3.05176e-05C4.03125 3.05176e-05 0 4.03128 0 9.00003C0 13.9688 4.03125 18 9 18C13.9687 18 18 13.9688 18 9.00003C18 4.03128 13.9687 3.05176e-05 9 3.05176e-05ZM8.71875 14.25C8.53333 14.25 8.35207 14.195 8.1979 14.092C8.04373 13.989 7.92357 13.8426 7.85261 13.6713C7.78165 13.5 7.76309 13.3115 7.79926 13.1296C7.83544 12.9478 7.92472 12.7807 8.05584 12.6496C8.18695 12.5185 8.35399 12.4292 8.53585 12.393C8.71771 12.3569 8.90621 12.3754 9.07751 12.4464C9.24882 12.5173 9.39524 12.6375 9.49825 12.7917C9.60126 12.9459 9.65625 13.1271 9.65625 13.3125C9.65625 13.5612 9.55748 13.7996 9.38166 13.9754C9.20585 14.1513 8.96739 14.25 8.71875 14.25V14.25ZM10.2862 9.46878C9.5264 9.97878 9.42187 10.4461 9.42187 10.875C9.42187 11.0491 9.35273 11.216 9.22966 11.3391C9.10659 11.4621 8.93967 11.5313 8.76562 11.5313C8.59157 11.5313 8.42466 11.4621 8.30158 11.3391C8.17851 11.216 8.10937 11.0491 8.10937 10.875C8.10937 9.848 8.58187 9.03143 9.55406 8.37847C10.4578 7.7719 10.9687 7.38753 10.9687 6.54237C10.9687 5.96769 10.6406 5.53128 9.9614 5.20831C9.80156 5.13237 9.44578 5.05831 9.00797 5.06347C8.45859 5.0705 8.03203 5.20175 7.70344 5.46612C7.08375 5.96487 7.03125 6.50769 7.03125 6.51565C7.02709 6.60183 7.006 6.68635 6.96919 6.76438C6.93237 6.84241 6.88054 6.91243 6.81666 6.97043C6.75279 7.02843 6.67811 7.07328 6.5969 7.10242C6.51569 7.13156 6.42954 7.14442 6.34336 7.14026C6.25718 7.13611 6.17266 7.11502 6.09463 7.0782C6.0166 7.04138 5.94659 6.98956 5.88859 6.92568C5.83059 6.8618 5.78574 6.78713 5.75659 6.70592C5.72745 6.62471 5.71459 6.53855 5.71875 6.45237C5.7239 6.33847 5.80312 5.31237 6.87984 4.44612C7.43812 3.99706 8.14828 3.76362 8.98922 3.75331C9.58453 3.74628 10.1437 3.84706 10.523 4.02612C11.6578 4.56284 12.2812 5.45769 12.2812 6.54237C12.2812 8.12815 11.2214 8.84018 10.2862 9.46878Z" fill="#4FD1C5"/>
</svg>
