<svg width="16" height="16" viewBox="0 0 16 16" fill="none" xmlns="http://www.w3.org/2000/svg">
<path d="M14.1293 13.0958L11.3728 10.3393C12.0365 9.4558 12.3947 8.38041 12.3935 7.27542C12.3935 4.45297 10.0972 2.15668 7.27475 2.15668C4.45229 2.15668 2.15601 4.45297 2.15601 7.27542C2.15601 10.0979 4.45229 12.3942 7.27475 12.3942C8.37974 12.3954 9.45513 12.0371 10.3386 11.3735L13.0952 14.13C13.2347 14.2547 13.4167 14.3213 13.6038 14.3161C13.7909 14.3109 13.9688 14.2342 14.1012 14.1019C14.2335 13.9695 14.3102 13.7915 14.3154 13.6044C14.3207 13.4174 14.2541 13.2354 14.1293 13.0958ZM3.61851 7.27542C3.61851 6.55229 3.83294 5.84539 4.23469 5.24412C4.63645 4.64286 5.20748 4.17422 5.87557 3.89749C6.54366 3.62076 7.27881 3.54835 7.98805 3.68943C8.6973 3.83051 9.34878 4.17873 9.86011 4.69007C10.3714 5.2014 10.7197 5.85288 10.8607 6.56213C11.0018 7.27137 10.9294 8.00652 10.6527 8.67461C10.376 9.3427 9.90732 9.91373 9.30606 10.3155C8.70479 10.7172 7.99789 10.9317 7.27475 10.9317C6.30541 10.9305 5.37611 10.5449 4.69068 9.8595C4.00525 9.17407 3.61967 8.24477 3.61851 7.27542Z" fill="#2D3748"/>
</svg>
