<svg width="11" height="12" viewBox="0 0 11 12" fill="none" xmlns="http://www.w3.org/2000/svg">
<path d="M5.49951 1.77844C3.03547 1.77844 1.03076 3.78315 1.03076 6.24719C1.03076 8.71123 3.03547 10.7159 5.49951 10.7159C7.96355 10.7159 9.96826 8.71123 9.96826 6.24719C9.96826 3.78315 7.96355 1.77844 5.49951 1.77844ZM4.42057 4.28825C4.69277 3.99971 5.07584 3.84094 5.49951 3.84094C5.92318 3.84094 6.30281 4.00079 6.57609 4.29082C6.85303 4.58473 6.98773 4.97961 6.95594 5.40414C6.89234 6.24719 6.23922 6.93469 5.49951 6.93469C4.7598 6.93469 4.10539 6.24719 4.04309 5.40393C4.0115 4.97596 4.146 4.57979 4.42057 4.28825ZM5.49951 10.0284C4.99473 10.0288 4.49502 9.92774 4.03001 9.73133C3.56501 9.53492 3.14418 9.24714 2.79248 8.88504C2.99391 8.59779 3.25056 8.35355 3.54744 8.16661C4.09508 7.81555 4.78816 7.62219 5.49951 7.62219C6.21086 7.62219 6.90394 7.81555 7.45094 8.16661C7.74806 8.35347 8.00494 8.59771 8.20654 8.88504C7.85487 9.24718 7.43405 9.53499 6.96904 9.7314C6.50403 9.92781 6.0043 10.0288 5.49951 10.0284V10.0284Z" fill="white"/>
</svg>
