<svg width="11" height="12" viewBox="0 0 11 12" fill="none" xmlns="http://www.w3.org/2000/svg">
<path d="M5.5 1.77832C3.03596 1.77832 1.03125 3.78303 1.03125 6.24707C1.03125 8.71111 3.03596 10.7158 5.5 10.7158C7.96404 10.7158 9.96875 8.71111 9.96875 6.24707C9.96875 3.78303 7.96404 1.77832 5.5 1.77832ZM4.42105 4.28812C4.69326 3.99959 5.07633 3.84082 5.5 3.84082C5.92367 3.84082 6.3033 4.00066 6.57658 4.2907C6.85351 4.58461 6.98822 4.97949 6.95643 5.40402C6.89283 6.24707 6.23971 6.93457 5.5 6.93457C4.76029 6.93457 4.10588 6.24707 4.04357 5.40381C4.01199 4.97584 4.14648 4.57967 4.42105 4.28812ZM5.5 10.0283C4.99522 10.0287 4.49551 9.92762 4.0305 9.73121C3.5655 9.5348 3.14467 9.24702 2.79297 8.88492C2.9944 8.59767 3.25105 8.35343 3.54793 8.16648C4.09557 7.81543 4.78865 7.62207 5.5 7.62207C6.21135 7.62207 6.90443 7.81543 7.45142 8.16648C7.74855 8.35335 8.00543 8.59759 8.20703 8.88492C7.85536 9.24706 7.43454 9.53487 6.96953 9.73128C6.50451 9.92769 6.00479 10.0287 5.5 10.0283V10.0283Z" fill="#2D3748"/>
</svg>
