<svg width="15" height="16" viewBox="0 0 15 16" fill="none" xmlns="http://www.w3.org/2000/svg">
<path d="M0.9375 11.5153C0.9375 11.9504 1.11035 12.3677 1.41803 12.6754C1.7257 12.983 2.143 13.1559 2.57812 13.1559H12.4219C12.857 13.1559 13.2743 12.983 13.582 12.6754C13.8896 12.3677 14.0625 11.9504 14.0625 11.5153V7.00354H0.9375V11.5153ZM2.87109 9.2887C2.87109 9.0556 2.96369 8.83204 3.12852 8.66722C3.29335 8.50239 3.5169 8.40979 3.75 8.40979H5.15625C5.38935 8.40979 5.6129 8.50239 5.77773 8.66722C5.94256 8.83204 6.03515 9.0556 6.03515 9.2887V9.87463C6.03515 10.1077 5.94256 10.3313 5.77773 10.4961C5.6129 10.6609 5.38935 10.7535 5.15625 10.7535H3.75C3.5169 10.7535 3.29335 10.6609 3.12852 10.4961C2.96369 10.3313 2.87109 10.1077 2.87109 9.87463V9.2887Z" fill="white"/>
<path d="M12.4219 2.84302H2.57812C2.143 2.84302 1.7257 3.01587 1.41803 3.32355C1.11035 3.63122 0.9375 4.04852 0.9375 4.48364V5.24536H14.0625V4.48364C14.0625 4.04852 13.8896 3.63122 13.582 3.32355C13.2743 3.01587 12.857 2.84302 12.4219 2.84302V2.84302Z" fill="white"/>
</svg>
