<svg width="21" height="21" viewBox="0 0 21 21" fill="none" xmlns="http://www.w3.org/2000/svg">
<path d="M6.427 9.73893C6.33523 9.61911 6.19973 9.54053 6.05016 9.52038C5.90059 9.50023 5.74912 9.54015 5.62892 9.63141C5.5582 9.68718 5.50115 9.75837 5.46213 9.83955L0.562 19.6426C0.492597 19.7815 0.481197 19.9423 0.530307 20.0896C0.579416 20.237 0.685014 20.3588 0.823892 20.4282C0.905068 20.4693 0.994814 20.4906 1.08578 20.4903H7.91289C8.02224 20.4931 8.13003 20.4639 8.22306 20.4064C8.31609 20.3489 8.39033 20.2654 8.43668 20.1664C9.91016 17.1229 9.01697 12.4957 6.427 9.73893Z" fill="url(#paint0_linear_1_518)"/>
<path d="M10.0287 0.818043C8.8071 2.69781 8.09519 4.86284 7.96277 7.10073C7.83035 9.33862 8.28196 11.5725 9.2733 13.5832L12.5649 20.1663C12.6135 20.2636 12.6883 20.3455 12.7808 20.4027C12.8733 20.4599 12.9799 20.4902 13.0887 20.4903H19.9144C19.9914 20.4904 20.0676 20.4754 20.1388 20.446C20.2099 20.4167 20.2746 20.3735 20.329 20.3191C20.3835 20.2647 20.4266 20.2 20.456 20.1288C20.4853 20.0577 20.5004 19.9814 20.5002 19.9044C20.5003 19.8137 20.4795 19.7241 20.4395 19.6426L11.0252 0.815286C10.9805 0.720945 10.91 0.641227 10.8218 0.585404C10.7336 0.529581 10.6313 0.499947 10.5269 0.499947C10.4225 0.499947 10.3203 0.529581 10.2321 0.585404C10.1439 0.641227 10.0733 0.720945 10.0287 0.815286V0.818043Z" fill="#2684FF"/>
<defs>
<linearGradient id="paint0_linear_1_518" x1="9.12449" y1="11.2372" x2="3.95005" y2="20.1994" gradientUnits="userSpaceOnUse">
<stop stop-color="#0052CC"/>
<stop offset="0.92" stop-color="#2684FF"/>
</linearGradient>
</defs>
</svg>
