<svg width="21" height="22" viewBox="0 0 21 22" fill="none" xmlns="http://www.w3.org/2000/svg">
<g clip-path="url(#clip0_1_455)">
<path d="M20.2597 10.4198L11.397 1.49066L10.5382 0.625443L3.86649 7.34706L0.815689 10.4198C0.663303 10.5741 0.577759 10.7829 0.577759 11.0006C0.577759 11.2183 0.663303 11.4271 0.815689 11.5814L6.91086 17.7222L10.5382 21.3758L17.2089 14.6541L17.3128 14.5504L20.2597 11.5861C20.3361 11.5097 20.3967 11.4188 20.4381 11.3188C20.4794 11.2187 20.5007 11.1113 20.5007 11.0029C20.5007 10.8945 20.4794 10.7872 20.4381 10.6871C20.3967 10.587 20.3361 10.4962 20.2597 10.4198ZM10.5382 14.0687L7.49288 11.0006L10.5382 7.93252L13.5825 11.0006L10.5382 14.0687Z" fill="#2684FF"/>
<path d="M10.5374 7.93188C9.57966 6.96719 9.03976 5.65985 9.03563 4.29543C9.03149 2.931 9.56346 1.62037 10.5153 0.649811L3.85193 7.36032L7.47832 11.0139L10.5374 7.93188Z" fill="url(#paint0_linear_1_455)"/>
<path d="M13.5901 10.9916L10.5375 14.068C11.4988 15.0369 12.0389 16.3507 12.0389 17.7206C12.0389 19.0906 11.4988 20.4044 10.5375 21.3733L17.2193 14.6451L13.5901 10.9916Z" fill="url(#paint1_linear_1_455)"/>
</g>
<defs>
<linearGradient id="paint0_linear_1_455" x1="9.99216" y1="4.82767" x2="5.7079" y2="9.07917" gradientUnits="userSpaceOnUse">
<stop offset="0.18" stop-color="#0052CC"/>
<stop offset="1" stop-color="#2684FF"/>
</linearGradient>
<linearGradient id="paint1_linear_1_455" x1="776.604" y1="901.425" x2="1212.74" y2="1182.07" gradientUnits="userSpaceOnUse">
<stop offset="0.18" stop-color="#0052CC"/>
<stop offset="1" stop-color="#2684FF"/>
</linearGradient>
<clipPath id="clip0_1_455">
<rect width="20" height="21" fill="white" transform="translate(0.500122 0.499985)"/>
</clipPath>
</defs>
</svg>
