<svg width="76" height="72" viewBox="0 0 76 72" fill="none" xmlns="http://www.w3.org/2000/svg">
<path fill-rule="evenodd" clip-rule="evenodd" d="M61.3079 57.8817C62.5576 57.8817 63.7986 57.7446 65.0076 57.4616C65.6768 57.3084 66.3276 57.107 66.9734 56.8735C68.8023 56.2038 70.494 55.2043 71.9697 53.9465C72.9612 53.1001 74.4505 53.2212 75.2889 54.2133L75.442 54.39C76.2805 55.3735 76.1595 56.8648 75.1766 57.7038C73.2502 59.3409 71.0509 60.6296 68.6812 61.5093C66.3214 62.3804 63.8307 62.8239 61.3079 62.8239C55.6116 62.8239 50.1881 60.5493 46.1675 56.5263C42.1381 52.4947 39.8648 47.0693 39.8648 41.3685C39.8648 40.0699 40.9292 39.0135 42.2184 39.0135H42.4518C43.7496 39.0135 44.8042 40.0699 44.8042 41.3685C44.8042 41.9974 44.8449 42.6263 44.9178 43.2465C45.3438 46.9396 46.996 50.3745 49.6571 53.0346C52.7591 56.1309 56.9156 57.8805 61.3067 57.8805L61.3079 57.8817ZM30.3898 31.4766C30.3898 30.2683 31.3739 29.2835 32.5742 29.2835H34.2907C35.5008 29.2835 36.4825 30.2683 36.4825 31.4766C36.4825 32.685 35.5008 33.6697 34.2907 33.6697H32.5742C31.3739 33.6697 30.3898 32.6788 30.3898 31.4766ZM39.2782 31.4766C39.2782 30.2683 40.2624 29.2835 41.4713 29.2835H43.1791C44.388 29.2835 45.371 30.2683 45.371 31.4766C45.371 32.685 44.388 33.6697 43.1791 33.6697H41.4713C40.2612 33.6697 39.2782 32.6788 39.2782 31.4766ZM14.6924 57.8817C19.0761 57.8817 23.2425 56.1322 26.337 53.0359C26.8371 52.5367 27.3039 52.0128 27.7311 51.4556C28.6178 50.3114 29.3439 49.0611 29.8995 47.739C30.7454 45.7473 31.1887 43.5863 31.1887 41.3697C31.1887 40.0712 32.2433 39.0148 33.5411 39.0148H33.7757C35.0736 39.0148 36.1281 40.0712 36.1281 41.3697C36.1281 47.0693 33.8548 52.4959 29.8353 56.5275C25.806 60.5505 20.3912 62.8252 14.6936 62.8252C12.172 62.8252 9.67393 62.3816 7.31166 61.5105C4.94445 60.6308 2.74518 59.3421 0.824992 57.705C-0.164123 56.8661 -0.277729 55.3748 0.559499 54.3913L0.705211 54.2146C1.54367 53.2224 3.04278 53.1013 4.02449 53.9477C5.50754 55.2055 7.20052 56.2063 9.02193 56.8747C10.8335 57.5444 12.7524 57.8829 14.6936 57.8829L14.6924 57.8817ZM37.9964 5.43481C33.9029 5.43481 30.0107 7.07192 27.1187 9.9656C24.2266 12.8692 22.5892 16.755 22.5892 20.8583C22.5892 22.6733 23.3227 23.8582 24.2093 25.3656C26.5383 29.2675 27.4644 32.1945 27.4644 36.8303V41.3697C27.4644 44.7638 26.1098 47.9972 23.708 50.3992C21.3149 52.8023 18.0845 54.1479 14.6911 54.1479C11.2978 54.1479 8.06121 52.8011 5.66684 50.3992C3.26506 47.9972 1.91289 44.7638 1.91289 41.3697C1.91289 40.0712 2.96746 39.0148 4.26528 39.0148H4.49867C5.79526 39.0148 6.85106 40.0712 6.85106 41.3697C6.85106 43.4578 7.68088 45.4335 9.15653 46.9087C10.6285 48.384 12.6042 49.2143 14.6911 49.2143C16.778 49.2143 18.7451 48.384 20.2195 46.9087C21.694 45.4335 22.525 43.4578 22.525 41.3697V36.8303C22.525 33.0903 21.8323 31.0182 19.9701 27.8886C18.576 25.5423 17.6498 23.705 17.6498 20.8583C17.6498 15.4478 19.7997 10.2967 23.6216 6.47391C27.4484 2.65234 32.5903 0.5 37.9964 0.5C43.4026 0.5 48.5519 2.65234 52.3713 6.47391C56.1907 10.2967 58.3431 15.4478 58.3431 20.8583C58.3431 23.705 57.4243 25.5423 56.0302 27.8886C54.168 31.017 53.4679 33.089 53.4679 36.8303V41.3697C53.4679 43.4578 54.3064 45.4335 55.7734 46.9087C57.2478 48.384 59.2211 49.2143 61.3079 49.2143C63.3948 49.2143 65.3694 48.384 66.8364 46.9087C68.3108 45.4335 69.1406 43.4578 69.1406 41.3697C69.1406 40.0712 70.1964 39.0148 71.4942 39.0148H71.7276C73.0242 39.0148 74.08 40.0712 74.08 41.3697C74.08 44.7638 72.7254 47.9972 70.3335 50.3992C67.9317 52.8023 64.7013 54.1479 61.3079 54.1479L60.262 54.1071C57.2552 53.8575 54.436 52.5515 52.2849 50.3979C51.1723 49.2847 50.2943 48.0034 49.6584 46.6011C48.9249 44.9714 48.5371 43.1909 48.5371 41.3685V36.8291C48.5371 32.1933 49.4633 29.2662 51.7848 25.3643C52.6788 23.8557 53.4037 22.6721 53.4037 20.857C53.4037 16.7537 51.7774 12.8679 48.8755 9.96436C45.9822 7.07069 42.0999 5.43358 37.9977 5.43358L37.9964 5.43481ZM44.6683 20.8422C44.6683 19.0692 43.9423 17.3925 42.6938 16.1421C41.4442 14.893 39.7685 14.1838 37.9952 14.1838C36.6974 14.1838 35.6416 13.1274 35.6416 11.8288V11.5953C35.6416 10.298 36.6974 9.24156 37.9952 9.24156C41.0712 9.24156 44.0065 10.4759 46.1823 12.6443C48.3581 14.8213 49.5979 17.7471 49.6053 20.8274C49.6053 21.4711 49.3805 22.0357 48.9212 22.4954C48.4618 22.955 47.9061 23.1885 47.2517 23.1885H47.0195C45.7291 23.1885 44.6745 22.1321 44.6671 20.8422H44.6683ZM37.9964 53.771C38.8102 53.7376 39.6153 54.1256 40.0747 54.8583C42.3629 58.4377 45.5303 61.4055 49.2447 63.4615C52.9517 65.5014 57.0774 66.5578 61.3067 66.5578C62.6045 66.5578 63.6603 67.6142 63.6603 68.9115V69.1463C63.6603 70.4436 62.6033 71.5 61.3067 71.5C56.2463 71.5 51.2995 70.2261 46.8676 67.7822C43.4594 65.9116 40.4452 63.3886 37.9964 60.3886C35.5465 63.3886 32.5335 65.9116 29.1315 67.7822C24.6996 70.2261 19.7454 71.5 14.6911 71.5C13.3945 71.5 12.3387 70.4436 12.3387 69.1463V68.9115C12.3387 67.6129 13.3945 66.5578 14.6911 66.5578C18.9143 66.5578 23.0399 65.5014 26.7457 63.4615C30.4688 61.4055 33.6275 58.4377 35.9157 54.8583C36.3825 54.1244 37.1889 53.7376 37.9952 53.771H37.9964Z" fill="white"/>
</svg>
