<svg width="278" height="52" viewBox="0 0 278 52" fill="none" xmlns="http://www.w3.org/2000/svg">
<path d="M0 31.4884V31.3769C0 20.276 8.93201 11.2753 20.8405 11.2753C32.7491 11.2753 41.5697 20.1657 41.5697 31.2665V31.3781C41.5697 42.4764 32.6377 51.4796 20.7291 51.4796C8.82062 51.4796 0 42.5868 0 31.4884ZM30.6525 31.4884V31.3769C30.6525 25.7992 26.6302 20.9393 20.7291 20.9393C14.8281 20.9393 10.9704 25.6888 10.9704 31.2665V31.3781C10.9704 36.9558 14.9964 41.8157 20.8393 41.8157C26.6822 41.8157 30.6513 37.0661 30.6513 31.4884H30.6525Z" fill="white"/>
<path d="M45.8136 31.4884V31.3768C45.8136 20.1111 54.4696 11.2753 66.1566 11.2753C74.0403 11.2753 79.1134 14.5879 82.5305 19.3375L74.4822 25.5784C72.2742 22.8187 69.7408 21.0508 66.0477 21.0508C60.6442 21.0508 56.8409 25.6355 56.8409 31.2665V31.3781C56.8409 37.1739 60.6442 41.7053 66.0477 41.7053C70.07 41.7053 72.4426 39.827 74.7569 37.0103L82.8053 42.7529C79.1666 47.7789 74.2607 51.4808 65.7148 51.4808C54.6899 51.4808 45.8124 43.0318 45.8124 31.4896L45.8136 31.4884Z" fill="white"/>
<path d="M96.8077 21.4377H85.2284V12.0502H119.079V21.4377H107.5V50.7048H96.8077V21.4377Z" fill="white"/>
<path d="M120.787 31.4884V31.3768C120.787 20.276 129.719 11.2753 141.628 11.2753C153.536 11.2753 162.357 20.1656 162.357 31.2665V31.3781C162.357 42.4764 153.425 51.4796 141.516 51.4796C129.608 51.4796 120.787 42.5868 120.787 31.4884ZM151.44 31.4884V31.3768C151.44 25.7991 147.417 20.9393 141.516 20.9393C135.615 20.9393 131.758 25.6888 131.758 31.2665V31.3781C131.758 36.9558 135.784 41.8156 141.626 41.8156C147.469 41.8156 151.438 37.0661 151.438 31.4884H151.44Z" fill="white"/>
<path d="M167.925 12.0489H184.463C194.222 12.0489 200.506 17.0749 200.506 25.6342V25.7421C200.506 34.8543 193.505 39.6609 183.913 39.6609H178.62V50.7047H167.925V12.0489ZM183.691 31.2652C187.494 31.2652 189.81 29.2754 189.81 26.2392V26.1276C189.81 22.815 187.494 21.0483 183.637 21.0483H178.619V31.264H183.69L183.691 31.2652Z" fill="white"/>
<path d="M204.53 33.7497V12.0489H215.391V33.5303C215.391 39.108 218.2 41.7573 222.501 41.7573C226.802 41.7573 229.611 39.2158 229.611 33.8067V12.0489H240.471V33.4732C240.471 45.9539 233.361 51.4213 222.389 51.4213C211.418 51.4213 204.529 45.8436 204.529 33.7497H204.53Z" fill="white"/>
<path d="M243.893 44.9622L249.848 37.836C253.651 40.8759 257.896 42.474 262.361 42.474C265.228 42.474 266.77 41.4809 266.77 39.8246V39.713C266.77 38.1113 265.503 37.2285 260.265 36.0136C252.052 34.1353 245.712 31.8157 245.712 23.8651V23.7536C245.712 16.5741 251.39 11.3832 260.651 11.3832C267.213 11.3832 272.338 13.1499 276.529 16.5195L271.182 24.0833C267.654 21.5989 263.793 20.2735 260.375 20.2735C257.785 20.2735 256.517 21.3782 256.517 22.758V22.8696C256.517 24.6363 257.838 25.4111 263.187 26.6261C272.062 28.5576 277.576 31.4289 277.576 38.663V38.7745C277.576 46.6718 271.345 51.3668 261.974 51.3668C255.14 51.3668 248.634 49.2121 243.892 44.9609L243.893 44.9622Z" fill="white"/>
<path d="M270.454 1.57662H268.693V7.22002H267.575V1.57662H265.815V0.519104H270.453V1.57662H270.454ZM274.828 5.26864L276.392 0.519104H278V7.22002H276.952V1.98202H276.923L275.205 7.22002H274.423L272.705 1.98202H272.678V7.22002H271.63V0.519104H273.251L274.83 5.26864H274.828Z" fill="white"/>
</svg>
