<svg width="21" height="20" viewBox="0 0 21 20" fill="none" xmlns="http://www.w3.org/2000/svg">
<g clip-path="url(#clip0_1_476)">
<path d="M10.5001 -4.57764e-05C4.97709 -4.57764e-05 0.500122 4.47692 0.500122 9.99995C0.500122 15.523 4.97709 20 10.5001 20C16.0232 20 20.5001 15.523 20.5001 9.99995C20.5001 4.47761 16.0232 0.000636585 10.5001 -4.57764e-05ZM15.0863 14.4223C14.9068 14.7171 14.5226 14.8092 14.2292 14.6298C11.8812 13.1948 8.92523 12.8706 5.44451 13.6656C5.10879 13.7427 4.77443 13.5325 4.69801 13.1968C4.6209 12.8611 4.83038 12.5267 5.16679 12.4503C8.97573 11.5803 12.2436 11.9549 14.8795 13.5653C15.1729 13.7461 15.2664 14.1289 15.0863 14.4223ZM16.3097 11.7004C16.0839 12.0675 15.6035 12.1821 15.2371 11.957C12.5499 10.305 8.45167 9.82663 5.27255 10.7915C4.86041 10.9164 4.42506 10.6837 4.29951 10.2722C4.17532 9.86007 4.408 9.42541 4.81947 9.29985C8.45099 8.19784 12.9662 8.73145 16.0525 10.6284C16.4196 10.8543 16.5356 11.334 16.3097 11.7004ZM16.4148 8.8645C13.1914 6.95048 7.8744 6.77443 4.79695 7.7079C4.30292 7.85802 3.78023 7.57894 3.63079 7.08491C3.48136 6.59088 3.75976 6.06819 4.25447 5.91807C7.78706 4.84608 13.6588 5.05284 17.3694 7.2555C17.8137 7.51957 17.9597 8.09344 17.6963 8.53697C17.4336 8.98187 16.8584 9.12858 16.4148 8.8645Z" fill="#2EBD59"/>
</g>
<defs>
<clipPath id="clip0_1_476">
<rect width="20" height="20" fill="white" transform="translate(0.500122 -4.57764e-05)"/>
</clipPath>
</defs>
</svg>
