<svg width="21" height="20" viewBox="0 0 21 20" fill="none" xmlns="http://www.w3.org/2000/svg">
<g clip-path="url(#clip0_1_538)">
<path d="M4.04191 -1.90735e-05H16.9586C18.9169 -1.90735e-05 20.5002 1.58331 20.5002 3.54165V15.9583C20.5002 17.9166 18.9169 19.5 16.9586 19.5H4.04191C2.08358 19.5 0.500244 17.9166 0.500244 15.9583V3.54165C0.500244 1.58331 2.08358 -1.90735e-05 4.04191 -1.90735e-05Z" fill="#470137"/>
<path d="M11.0168 5.1242L8.51684 9.2492L11.1835 13.6242C11.2002 13.6575 11.2085 13.6909 11.2002 13.7242C11.1918 13.7575 11.1585 13.7325 11.1085 13.7409H9.20018C9.06684 13.7409 8.97518 13.7325 8.91684 13.6492C8.74184 13.2992 8.55851 12.9575 8.38351 12.6075C8.20851 12.2659 8.01684 11.9159 7.81684 11.5575C7.61684 11.1992 7.41684 10.8409 7.21684 10.4742H7.20018C7.02518 10.8325 6.83351 11.1909 6.64184 11.5492C6.45018 11.9075 6.25851 12.2659 6.07518 12.6159C5.88351 12.9659 5.69184 13.3242 5.50018 13.6659C5.46684 13.7492 5.40018 13.7575 5.30851 13.7575H3.47518C3.44184 13.7575 3.41684 13.7742 3.41684 13.7325C3.40851 13.6992 3.41684 13.6659 3.43351 13.6409L6.02518 9.39087L3.50018 5.11587C3.47518 5.08253 3.46684 5.0492 3.48351 5.03253C3.50018 5.00753 3.53351 4.9992 3.56684 4.9992H5.45851C5.50018 4.9992 5.54184 5.00753 5.57518 5.01587C5.60851 5.03253 5.63351 5.05753 5.65851 5.09087C5.81684 5.4492 6.00018 5.80753 6.19184 6.16587C6.39184 6.5242 6.58351 6.8742 6.79184 7.2242C6.99184 7.5742 7.17518 7.9242 7.35018 8.28253H7.36684C7.54184 7.91587 7.72518 7.55753 7.90851 7.20753C8.09184 6.85753 8.28351 6.50753 8.47518 6.15753C8.66684 5.80753 8.85018 5.4492 9.03351 5.10753C9.04184 5.0742 9.05851 5.04087 9.08351 5.0242C9.11684 5.00753 9.15018 4.9992 9.19184 5.00753H10.9502C10.9918 4.9992 11.0335 5.0242 11.0418 5.06587C11.0502 5.0742 11.0335 5.10753 11.0168 5.1242Z" fill="#FF61F6"/>
<path d="M14.8667 13.9166C14.25 13.9249 13.6333 13.7999 13.075 13.5416C12.55 13.2999 12.1167 12.8999 11.8167 12.4083C11.5083 11.8999 11.3583 11.2666 11.3583 10.5083C11.35 9.89161 11.5083 9.28328 11.8167 8.74994C12.1333 8.20828 12.5917 7.75828 13.1417 7.45828C13.725 7.13328 14.425 6.97494 15.25 6.97494C15.2917 6.97494 15.35 6.97494 15.425 6.98328C15.5 6.99161 15.5833 6.99161 15.6833 6.99994V4.36661C15.6833 4.30828 15.7083 4.27494 15.7667 4.27494H17.4583C17.5 4.26661 17.5333 4.29994 17.5417 4.33328C17.5417 4.34161 17.5417 4.34994 17.5417 4.34994V12.2833C17.5417 12.4333 17.55 12.5999 17.5583 12.7833C17.575 12.9583 17.5833 13.1249 17.5917 13.2666C17.5917 13.3249 17.5667 13.3749 17.5083 13.3999C17.075 13.5833 16.6167 13.7166 16.15 13.7999C15.725 13.8749 15.3 13.9166 14.8667 13.9166ZM15.6833 12.2499V8.58328C15.6083 8.56661 15.5333 8.54994 15.4583 8.54161C15.3667 8.53328 15.275 8.52494 15.1833 8.52494C14.8583 8.52494 14.5333 8.59161 14.2417 8.74161C13.9583 8.88328 13.7167 9.09161 13.5333 9.35828C13.35 9.62494 13.2583 9.98328 13.2583 10.4166C13.25 10.7083 13.3 10.9999 13.4 11.2749C13.4833 11.4999 13.6083 11.6999 13.775 11.8666C13.9333 12.0166 14.125 12.1333 14.3417 12.1999C14.5667 12.2749 14.8 12.3083 15.0333 12.3083C15.1583 12.3083 15.275 12.2999 15.3833 12.2916C15.4917 12.2999 15.5833 12.2833 15.6833 12.2499Z" fill="#FF61F6"/>
</g>
<defs>
<clipPath id="clip0_1_538">
<rect width="20" height="19.5" fill="white" transform="translate(0.500244 -1.90735e-05)"/>
</clipPath>
</defs>
</svg>
